PathFileType	4	(X/Y/Z)	Run_400 02
DataRate	CameraRate	NumFrames	NumMarkers	Units	OrigDataRate	OrigDataStartFrame	OrigNumFrames
100	100	6	45	mm	100	25	137
Frame#	Time	LASI			RASI			LPSI			RPSI			RTH1			RTH2			RTH3			LTH1			LTH2			LTH3			RTB1			RTB2			RTB3			RLMAL			RMMAL			LTB1			LTB2			LTB3			RCAL			RTOE			RMT5			LCAL			LTOE			LMT5			LACR			RACR			CLAV			C7			LPSH			RUA1			RUA2			RUA3			RLEL			RMEL			LUA1			LUA2			LUA3			LLEL			LMEL			RFAsuperior			RFAradius			RFAulna			LFAsuperior			LFAradius			LFAulna			
		X1	Y1	Z1	X2	Y2	Z2	X3	Y3	Z3	X4	Y4	Z4	X5	Y5	Z5	X6	Y6	Z6	X7	Y7	Z7	X8	Y8	Z8	X9	Y9	Z9	X10	Y10	Z10	X11	Y11	Z11	X12	Y12	Z12	X13	Y13	Z13	X14	Y14	Z14	X15	Y15	Z15	X16	Y16	Z16	X17	Y17	Z17	X18	Y18	Z18	X19	Y19	Z19	X20	Y20	Z20	X21	Y21	Z21	X22	Y22	Z22	X23	Y23	Z23	X24	Y24	Z24	X25	Y25	Z25	X26	Y26	Z26	X27	Y27	Z27	X28	Y28	Z28	X29	Y29	Z29	X30	Y30	Z30	X31	Y31	Z31	X32	Y32	Z32	X33	Y33	Z33	X34	Y34	Z34	X35	Y35	Z35	X36	Y36	Z36	X37	Y37	Z37	X38	Y38	Z38	X39	Y39	Z39	X40	Y40	Z40	X41	Y41	Z41	X42	Y42	Z42	X43	Y43	Z43	X44	Y44	Z44	X45	Y45	Z45	

25	0.35	939.297222	1096.765479	-433.642375	942.292716	1087.041615	-207.049326	780.598396	1140.38702	-370.420461	781.148548	1138.260317	-279.56599	768.6931980000001	850.050178	-167.134477	809.814578	762.660878	-202.647064	706.1345240000001	695.2353879999999	-208.991273	899.8732209999999	884.908461	-480.528573	1022.917987	827.811318	-474.01838	1023.222793	718.025393	-459.373571	601.942345	465.429918	-269.992328	526.519484	456.088307	-235.979157	456.921169	350.514025	-289.845796	345.49145	303.486277	-286.947311	386.127779	299.797286	-360.471255	1127.927949	507.080999	-431.898965	1049.219675	400.573519	-456.52793	1116.168066	314.054559	-415.036756	311.14234	343.708723	-356.619121	381.362683	131.009906	-332.361559	324.025264	181.033527	-268.387008	1017.813987	163.495047	-369.606546	1242.02932	146.902754	-382.370944	1185.113908	122.152698	-450.387612	867.1533439999999	1597.597372	-486.633868	933.278939	1580.893255	-184.574417	978.572965	1521.710891	-325.680211	867.298522	1608.81518	-329.385566	784.0368130000001	1573.975953	-467.901186	911.68333	1436.51529	-88.988771	833.206873	1389.175365	-73.140745	851.934437	1332.393702	-36.407758	872.900731	1264.747475	-19.699086	803.135138	1255.345639	-85.82996799999999	744.485768	1515.20313	-519.0438380000001	680.568552	1461.304206	-470.60269	648.927996	1425.549595	-528.222589	614.059301	1350.745593	-547.89259	618.67318	1343.182783	-456.941124	915.559706	1238.497016	-79.518271	1011.222664	1343.530367	-218.453729	1029.212188	1278.716655	-222.768756	683.590269	1284.21786	-532.174921	856.793357	1312.869046	-523.641849	846.564737	1246.101429	-533.879901	
26	0.36	940.232748	1097.174692	-432.038331	942.465448	1090.327947	-205.038104	780.818901	1140.310926	-369.486307	781.570715	1139.38658	-278.619793	774.3363869999999	849.29121	-167.297262	815.375251	763.397733	-204.886254	712.285717	695.050291	-209.102541	897.230663	883.741338	-480.842638	1018.192162	821.831933	-475.204927	1015.0028	711.229777	-462.428017	599.7497499999999	470.565999	-269.690083	522.914504	468.134606	-236.30928	445.816035	367.23591	-288.575366	330.76998	328.803535	-286.039192	372.288815	320.517186	-359.276906	1125.803328	501.333052	-432.016414	1056.004533	389.385995	-454.719941	1129.027347	308.639822	-410.841715	298.632625	368.365041	-357.699235	358.694835	154.883062	-324.984983	302.781038	208.841627	-263.343125	1041.627482	154.704966	-363.092611	1266.257239	148.667898	-374.587852	1211.019188	118.477847	-442.300948	866.993406	1598.234113	-488.614814	933.489729	1582.545288	-185.906235	978.561735	1523.370878	-327.099196	867.347838	1610.536541	-331.530545	783.958263	1574.749534	-469.481686	910.685898	1438.558622	-89.746157	831.442107	1392.260787	-73.788068	849.728348	1335.704518	-36.359696	869.774581	1267.720473	-19.009804	800.053436	1258.918443	-85.256103	743.93656	1516.460111	-519.014739	681.099474	1462.769059	-468.57433	647.855903	1427.145607	-525.381165	612.197583	1351.883158	-544.224704	618.445509	1345.00035	-453.039989	912.187919	1240.479282	-78.72931	1009.528878	1342.713539	-218.683696	1026.198363	1277.541011	-222.620448	681.904987	1285.322254	-529.0620249999999	855.481036	1313.509664	-523.510753	845.029883	1246.670389	-533.083993	
27	0.37	941.047143	1097.102026	-430.805187	942.811247	1092.247478	-203.430242	780.939125	1139.048831	-368.317278	782.129125	1138.949255	-277.476684	780.404852	847.029071	-168.075075	821.860114	762.541411	-206.564342	719.592518	693.104137	-209.54483	895.899263	882.929831	-482.348542	1013.307664	815.06566	-477.258497	1006.110458	703.852556	-464.711592	599.986053	474.403133	-269.895656	522.462975	479.264898	-236.712996	437.801594	383.772961	-287.170155	319.751669	354.667198	-284.623147	361.676652	341.139549	-357.672048	1122.228507	495.801468	-431.581315	1058.888988	380.468891	-451.779921	1137.191763	304.4861	-406.990126	289.940325	393.070393	-358.716198	339.3032	178.934408	-315.376593	285.108066	238.153918	-257.182923	1058.730196	148.386474	-356.26419	1283.207415	151.06707	-367.711337	1229.382802	116.13774	-434.656966	867.443778	1597.681367	-490.678886	933.850762	1583.062339	-187.334917	978.505849	1523.790205	-328.345073	867.533932	1611.44367	-333.715438	784.279497	1574.409845	-471.656972	908.843246	1439.860225	-90.265624	828.591903	1394.66674	-74.839675	846.181542	1338.377598	-36.505899	865.308748	1270.022391	-18.403105	796.2049500000001	1261.686459	-85.11908099999999	744.2147670000001	1516.10923	-519.917148	681.99234	1462.50076	-467.988469	647.813089	1426.816501	-524.2384489999999	611.76687	1351.04451	-542.376144	619.048766	1344.830023	-450.994383	907.81071	1241.171105	-77.544888	1008.491879	1339.305146	-218.22665	1023.536698	1273.723356	-221.113965	681.618632	1284.527728	-527.545867	855.460514	1312.239992	-523.702341	844.856531	1245.378821	-532.747498	
28	0.38	941.610877	1096.69524	-429.974328	943.352945	1092.509576	-202.553189	780.937779	1136.94731	-367.161596	782.771766	1137.113599	-276.232898	785.934492	843.875098	-168.743229	828.5310449999999	760.226396	-207.141188	727.740895	689.242851	-210.395066	894.8951029999999	881.490803	-484.395826	1008.067394	807.731124	-480.189625	997.394769	696.62731	-465.738084	602.720703	476.721616	-270.279893	525.514406	488.745534	-237.008621	433.445066	399.623924	-285.745582	313.260775	380.492791	-282.696255	354.577773	361.461865	-355.705407	1117.558454	490.735943	-431.008455	1057.772921	373.269508	-447.623663	1140.608594	300.94783	-403.887537	285.650902	417.687234	-359.183748	322.989632	203.040884	-304.913667	271.959056	268.330774	-250.383218	1068.601332	143.630044	-349.241131	1292.733835	152.38275	-361.897131	1239.709113	113.953639	-427.752417	868.411882	1595.92317	-492.659214	934.063914	1582.575055	-188.733347	978.38973	1522.941659	-329.358363	867.721084	1611.278581	-335.741953	784.920204	1573.015373	-474.278178	906.20512	1440.496658	-90.612853	824.907239	1396.489017	-76.127106	841.5279420000001	1340.419529	-36.882472	859.670765	1271.727315	-17.993884	791.7547479999999	1263.733629	-85.457931	745.201575	1514.098752	-521.772099	683.098939	1460.626024	-468.893239	648.7594800000001	1424.501659	-524.829396	612.74379	1348.234668	-542.390682	620.384482	1342.607675	-450.879816	902.460911	1240.656313	-76.035635	1007.882964	1333.472366	-217.069912	1021.08668	1267.482627	-218.341389	682.6764480000001	1281.790848	-527.628055	856.698326	1309.145894	-524.234448	846.015552	1242.271033	-532.8970409999999	
29	0.39	941.754935	1095.921576	-429.553662	943.972731	1091.060718	-202.317657	780.691731	1134.207841	-366.147121	783.17118	1134.055829	-275.03976	790.898084	839.682026	-169.068599	835.2088230000001	756.512708	-206.845484	736.573387	683.371294	-211.489632	893.3908750000001	878.725613	-486.445519	1003.085981	800.275461	-483.798877	990.125928	690.15955	-465.778369	607.878816	477.545154	-270.229581	531.906054	496.174765	-236.967156	432.962287	414.328724	-284.284047	311.80075	405.472709	-280.431909	351.229844	381.252688	-353.508629	1112.073784	485.819721	-430.214737	1053.619201	366.90222	-442.9897	1139.539752	297.025907	-401.115443	285.925219	441.769006	-358.781982	309.966049	227.342367	-295.015246	264.201543	298.427527	-243.41719	1071.161888	139.476017	-342.436869	1295.092059	151.058821	-356.884876	1242.163716	110.59427	-421.57653	869.795941	1592.962533	-494.54499	933.945423	1581.221096	-189.952806	978.209195	1520.86339	-330.082465	867.793274	1609.840155	-337.545136	785.794012	1570.504969	-477.196968	902.860508	1440.476881	-90.84004899999999	820.633093	1397.718434	-77.586506	836.0125420000001	1341.819558	-37.464821	853.016928	1272.869623	-17.828598	786.747611	1265.125314	-86.191028	746.69182	1510.438818	-524.422994	684.3138740000001	1457.104911	-471.245533	650.609098	1420.165143	-527.089572	615.053309	1343.481162	-544.240598	622.341512	1338.296634	-452.652149	896.1946390000001	1239.067036	-74.16090199999999	1007.332815	1325.379828	-215.162157	1018.615395	1259.007381	-214.403047	684.977909	1277.114549	-529.18278	859.12354	1304.349707	-525.21369	848.417204	1237.418046	-533.533878	
30	0.4	941.309228	1094.442883	-429.579678	944.492205	1088.094529	-202.342963	780.10942	1130.856606	-365.323879	782.999516	1129.915056	-274.016686	795.761272	834.058575	-169.389158	842.168188	751.5688740000001	-206.140013	746.055418	675.837956	-212.431564	891.302725	874.637129	-488.037685	999.238653	793.249982	-487.584062	984.986281	684.547133	-465.208225	615.3729509999999	477.169733	-269.39543	541.227853	501.545013	-236.383135	436.280871	427.587565	-282.63035	315.382474	428.777257	-277.986157	351.844185	400.133877	-351.135652	1105.952649	480.435258	-428.49362	1047.622525	360.75149	-438.959894	1134.399777	291.902514	-397.874798	290.804687	464.66625	-357.457324	300.911681	251.391901	-286.48148	262.19314	327.303989	-236.736254	1066.795906	134.955216	-336.69901	1290.750862	146.402169	-352.068769	1237.670775	104.853385	-415.754828	871.437338	1588.839831	-496.352361	933.451113	1579.039466	-190.90124	977.963665	1517.619088	-330.488596	867.697269	1607.068516	-339.110962	786.8281019999999	1566.735454	-480.242647	898.891331	1439.77786	-90.922398	815.9001060000001	1398.238762	-79.238147	829.798733	1342.547749	-38.19169	845.49648	1273.437374	-17.85158	781.205855	1265.841186	-87.17881300000001	748.510883	1505.197898	-527.64837	685.612083	1451.819207	-474.894746	653.2751019999999	1413.833497	-530.8526900000001	618.561366	1336.823479	-547.77852	624.863777	1331.933889	-456.15473	889.075483	1236.508643	-71.870859	1006.472776	1315.187076	-212.408019	1015.810928	1248.451832	-209.328979	688.410151	1270.552857	-532.033773	862.62621	1297.952717	-526.687815	851.9318060000001	1230.913927	-534.602679	
